<svg xmlns="http://www.w3.org/2000/svg" width="202.50549483299255" height="145"><rect id="backgroundrect" width="100%" height="100%" x="0" y="0" fill="none" stroke="none" style="" class=""/><style>.st0{fill:#fff}.st1{fill:#ff1f00}</style><title>Snkrs</title><g class="currentLayer" style=""><title>Layer 1</title><path id="Combined-Shape" class="st1" d="M143.62747836112976,105.70659637451172 c4.699999809265137,0 7.199999809265137,-4.099999904632568 7.199999809265137,-8.300000190734863 c0,-5.699999809265137 -3.5,-8.100000381469727 -8.300000190734863,-7.900000095367432 v16.100000381469727 l1.100000023841858,0.10000000149011612 zm-108.80000305175781,19 c-1.899999976158142,9.699999809265137 -9.699999809265137,16.5 -20.299999237060547,16.5 c-4.5,0 -9.100000381469727,-0.4000000059604645 -13.300000190734863,-2.0999999046325684 v-20.399999618530273 c2.4000000953674316,3.5999999046325684 6.699999809265137,7.199999809265137 11.199999809265137,7.199999809265137 c2.4000000953674316,0 5.199999809265137,-1.5 5.199999809265137,-4.300000190734863 c0,-1.5 -0.5,-2.700000047683716 -1.399999976158142,-3.5999999046325684 c-0.800000011920929,-1 -1.7999999523162842,-1.7999999523162842 -2.9000000953674316,-2.5 c-3.5,-2.700000047683716 -6.5,-5.199999809265137 -8.800000190734863,-8.300000190734863 c-2.0999999046325684,-3 -3.5,-6.599999904632568 -3.5,-11.399999618530273 c0,-7.599999904632568 4.800000190734863,-20.799999237060547 19.899999618530273,-20.799999237060547 c3.9000000953674316,0 8,1.100000023841858 11.600000381469727,2.799999952316284 v18.299999237060547 c-2.299999952316284,-2.9000000953674316 -5.900000095367432,-5.599999904632568 -9.399999618530273,-5.599999904632568 c-2,0 -4.599999904632568,1.399999976158142 -4.599999904632568,4 c0,1.399999976158142 0.800000011920929,2.5999999046325684 1.7000000476837158,3.5999999046325684 c0.8999999761581421,1 2.299999952316284,1.899999976158142 3.200000047683716,2.700000047683716 c3.700000047683716,2.5999999046325684 6.699999809265137,5 8.699999809265137,8 c1.2999999523162842,1.7999999523162842 2.200000047683716,3.700000047683716 2.700000047683716,6.099999904632568 v-39.29999923706055 h18.5 l8.399999618530273,29.200000762939453 v-29.200000762939453 h17 v65.0999984741211 H64.22746920585632 l-12.300000190734863,-31.899999618530273 v31.899999618530273 H34.82747530937195 v-16 zm90.0999984741211,-49.20000076293945 h17.100000381469727 c12.5,0 22.200000762939453,3 25.399999618530273,13.5 c2.0999999046325684,-6.800000190734863 7.699999809265137,-14.100000381469727 18.899999618530273,-14.100000381469727 c4.199999809265137,0 8.800000190734863,0.699999988079071 12.600000381469727,2.700000047683716 V97.4065933227539 c-2.0999999046325684,-3.299999952316284 -6.300000190734863,-7 -10.399999618530273,-7 c-2.0999999046325684,0 -4.599999904632568,1.5 -4.599999904632568,4 c0,1.399999976158142 0.800000011920929,2.5999999046325684 1.7000000476837158,3.5999999046325684 c0.8999999761581421,1 2.299999952316284,1.899999976158142 3.200000047683716,2.700000047683716 c3.700000047683716,2.5999999046325684 6.699999809265137,5 8.699999809265137,8 c2.0999999046325684,2.9000000953674316 3.200000047683716,6.400000095367432 3.200000047683716,11.300000190734863 c0,12.100000381469727 -8.5,21.200000762939453 -20.799999237060547,21.200000762939453 c-2.799999952316284,0 -5.699999809265137,-0.10000000149011612 -8.399999618530273,-0.699999988079071 l0.10000000149011612,0.20000000298023224 h-19.200000762939453 l-10,-26.899999618530273 c0.10000000149011612,3.200000047683716 0.30000001192092896,6.400000095367432 0.30000001192092896,9.600000381469727 v17.299999237060547 h-33.099998474121094 l-10.699999809265137,-27.899999618530273 v27.899999618530273 h-17.600000381469727 v-65.0999984741211 h17.600000381469727 V94.4065933227539 l8.899999618530273,-18.899999618530273 h17.100000381469727 zm0,3.299999952316284 l-12.199999809265137,25.200000762939453 l12.199999809265137,29.200000762939453 v-54.400001525878906 zm42.70000076293945,24.399999618530273 c-1.2999999523162842,4.599999904632568 -4.400000095367432,8.399999618530273 -9.300000190734863,10.399999618530273 L166.52747225761414,130.40658569335938 v-11.699999809265137 c2.4000000953674316,3.5999999046325684 6.699999809265137,7.199999809265137 11.199999809265137,7.199999809265137 c2.4000000953674316,0 5.199999809265137,-1.5 5.199999809265137,-4.300000190734863 c0,-1.5 -0.5,-2.700000047683716 -1.399999976158142,-3.5999999046325684 c-0.800000011920929,-0.8999999761581421 -1.7999999523162842,-1.7000000476837158 -2.9000000953674316,-2.5 c-3.5,-2.700000047683716 -6.5,-5.199999809265137 -8.800000190734863,-8.300000190734863 c-0.8999999761581421,-1.2999999523162842 -1.7000000476837158,-2.5999999046325684 -2.200000047683716,-4 z"/><path id="Shape" class="st1" d="M73.62747073173523,27.806596755981445 c-8.199999809265137,2.0999999046325684 -14.699999809265137,1.899999976158142 -18.5,-0.800000011920929 c-9.600000381469727,-7 -2.299999952316284,-21.100000381469727 0.30000001192092896,-25.299999237060547 c-4.699999809265137,5.099999904632568 -9.399999618530273,10.300000190734863 -13,15.899999618530273 c-5.699999809265137,8.800000190734863 -8.199999809265137,18.399999618530273 -4.300000190734863,24.5 c6.900000095367432,11.100000381469727 23.600000381469727,6 34.29999923706055,1.5 l98.69999694824219,-41.5 l-97.5,25.700000762939453 z"/></g></svg>
